#!OML:ASF F:\VICON\USERDATA\Patient Classification 1\PLAYGROUND\JustinFriday\JustinFriday.ASF
:FULLY-SPECIFIED
:DEGREES
318
root 13.0369 11.434 -12.3711 -47.2484 -164.19 13.0582
lowerback 9.9357 5.16216 4.32434
upperback 3.539 7.00197 7.69271
thorax -2.29561 3.25101 4.78778
lowerneck 17.1431 -4.70709 -19.7735
upperneck 3.64799 -10.4245 9.64009
head -0.0814107 -5.93244 6.48766
rclavicle -2.74323e-014 -4.21423e-014
rhumerus 20.962 -19.1294 -56.2846
rradius 133.469
rwrist 13.8649
rhand -39.8465 -37.5529
rfingers 7.12502
rthumb -12.8198 -67.1393
lclavicle -2.74323e-014 -4.21423e-014
lhumerus 47.3805 59.8926 18.2068
lradius 67.9689
lwrist 52.9236
lhand 16.3863 6.20529
lfingers 7.12502
lthumb 41.1549 31.0722
rfemur 9.6624 -12.9642 -4.79209
rtibia 110.306
rfoot -32.9881 -1.79976
rtoes -35.3711
lfemur -14.1551 -4.36373 16.3002
ltibia 115.785
lfoot -27.6505 -4.30227
ltoes -28.8535
319
root 13.0372 11.5153 -12.4681 -46.4155 -163.272 13.1049
lowerback 9.87954 5.43575 4.3135
upperback 3.58646 7.37336 7.51631
thorax -2.21435 3.44729 4.5687
lowerneck 13.7625 -6.01938 -19.5668
upperneck 7.00814 -11.5868 8.01389
head 1.51615 -6.56807 5.68891
rclavicle -3.57812e-014 -7.87187e-014
rhumerus 18.4585 -19.0659 -55.4188
rradius 131.413
rwrist 14.8938
rhand -37.9752 -36.5764
rfingers 7.12502
rthumb -11.0153 -66.2674
lclavicle -3.57812e-014 -7.87187e-014
lhumerus 46.485 61.8238 19.7096
lradius 69.5751
lwrist 55.4012
lhand 17.2555 7.19419
lfingers 7.12502
lthumb 41.9703 31.7942
rfemur 9.93271 -13.4198 -4.7683
rtibia 109.581
rfoot -32.9203 -2.27558
rtoes -35.5294
lfemur -14.5819 -3.74161 15.8141
ltibia 115.523
lfoot -27.1277 -3.31932
ltoes -26.7888
320
root 13.0415 11.5931 -12.5539 -45.7043 -162.604 13.4066
lowerback 10.1451 5.31933 4.48774
upperback 3.01042 7.3462 7.27783
thorax -2.90968 3.44501 4.17287
lowerneck 15.4732 -5.86809 -19.1111
upperneck 6.31021 -11.6671 7.84569
head 1.02443 -6.61431 5.66845
rclavicle 4.37326e-014 -4.05521e-014
rhumerus 15.66 -17.9447 -55.1747
rradius 131.329
rwrist 10.8944
rhand -32.5427 -39.1255
rfingers 7.12502
rthumb -5.77267 -69.0268
lclavicle 4.37326e-014 -4.05521e-014
lhumerus 41.9026 62.618 16.6018
lradius 70.9107
lwrist 58.4602
lhand 16.592 7.73769
lfingers 7.12502
lthumb 41.3481 32.5424
rfemur 10.0876 -13.934 -4.21249
rtibia 108.889
rfoot -32.7714 -2.74865
rtoes -35.6657
lfemur -14.9609 -3.04432 15.9261
ltibia 115.251
lfoot -26.8524 -2.04998
ltoes -26.4836
321
root 13.0463 11.6781 -12.6422 -45.2716 -162.458 14.2701
lowerback 10.485 5.45019 5.49801
upperback 2.86766 7.64977 7.33919
thorax -3.13313 3.575 3.61307
lowerneck 16.5747 -6.04806 -19.1423
upperneck 4.76185 -12.0273 8.69318
head 0.490224 -6.73981 6.02563
rclavicle -5.96354e-014 -5.24792e-014
rhumerus 13.3418 -17.2314 -54.5957
rradius 128.447
rwrist 14.1217
rhand -32.7295 -36.6993
rfingers 7.12502
rthumb -5.95305 -66.5957
lclavicle -5.96354e-014 -5.24792e-014
lhumerus 39.0728 63.7192 15.5206
lradius 71.9248
lwrist 61.6385
lhand 14.4521 8.20587
lfingers 7.12502
lthumb 39.3357 33.6289
rfemur 10.3893 -14.5306 -2.62932
rtibia 108.055
rfoot -32.5981 -3.51752
rtoes -36.1846
lfemur -15.3025 -2.58453 17.0171
ltibia 114.855
lfoot -26.5762 -2.06524
ltoes -24.9501
322
root 13.0517 11.7717 -12.7385 -44.6234 -162.102 14.7809
lowerback 10.4679 5.62501 6.08752
upperback 2.78671 7.94864 7.23861
thorax -3.12079 3.71971 3.14978
lowerneck 17.885 -6.0945 -18.8493
upperneck 2.99519 -12.1616 9.47025
head -0.191727 -6.75485 6.34239
rclavicle 1.07344e-013 3.81667e-014
rhumerus 11.2992 -16.5689 -54.1414
rradius 126.411
rwrist 13.6118
rhand -31.8769 -34.7641
rfingers 7.12502
rthumb -5.12988 -64.682
lclavicle 1.07344e-013 3.81667e-014
lhumerus 36.7734 64.8169 14.7036
lradius 72.5297
lwrist 64.9729
lhand 12.3498 8.32721
lfingers 7.12502
lthumb 37.3515 34.3
rfemur 10.5663 -15.0207 -1.46243
rtibia 107.183
rfoot -32.4724 -3.99164
rtoes -36.1395
lfemur -15.7017 -2.16054 17.5115
ltibia 114.381
lfoot -26.0938 -2.88565
ltoes -20.6808
323
root 13.0565 11.8681 -12.8304 -43.7022 -161.099 14.5087
lowerback 10.4142 5.90132 5.5805
upperback 2.76834 8.29029 7.0009
thorax -3.15509 3.90974 3.13363
lowerneck 17.2022 -6.76343 -18.3557
upperneck 3.39577 -12.8175 8.70933
head 0.049744 -7.04675 5.97749
rclavicle 1.74931e-014 2.70347e-014
rhumerus 9.66166 -16.3811 -53.27
rradius 125.071
rwrist 9.38299
rhand -29.2011 -33.3593
rfingers 7.12502
rthumb -2.54594 -63.3239
lclavicle 1.74931e-014 2.70347e-014
lhumerus 35.4602 66.158 14.7749
lradius 72.4569
lwrist 68.1481
lhand 11.6167 8.45676
lfingers 7.12502
lthumb 36.6581 34.6089
rfemur 10.6999 -15.3879 -1.61118
rtibia 106.361
rfoot -32.3956 -4.25632
rtoes -36.0254
lfemur -15.9737 -1.50791 16.6352
ltibia 113.888
lfoot -25.6755 -2.03647
ltoes -18.6569
324
root 13.0566 11.9669 -12.9216 -42.808 -159.914 14.0704
lowerback 10.4806 6.22137 4.92679
upperback 2.7336 8.69077 6.73287
thorax -3.29403 4.12957 3.14282
lowerneck 19.7499 -6.56832 -18.7897
upperneck 0.0655701 -12.8788 10.4811
head -1.18729 -7.03115 6.84398
rclavicle -7.95139e-015 -6.20208e-014
rhumerus 7.96262 -16.1557 -52.0916
rradius 122.538
rwrist 9.22497
rhand -29.0961 -31.732
rfingers 7.12502
rthumb -2.44453 -61.6978
lclavicle -7.95139e-015 -6.20208e-014
lhumerus 35.8508 67.6319 16.4357
lradius 71.7566
lwrist 70.7682
lhand 12.3248 8.52243
lfingers 7.12502
lthumb 37.3279 34.5014
rfemur 11.0109 -15.7427 -2.08602
rtibia 105.466
rfoot -32.3912 -4.77985
rtoes -36.7248
lfemur -16.0184 -1.04036 15.3316
ltibia 113.284
lfoot -25.3609 -0.607737
ltoes -17.9956
325
root 13.0593 12.0713 -13.0218 -41.9877 -158.653 13.8134
lowerback 10.5282 6.42352 4.38388
upperback 2.6386 8.94379 6.36131
thorax -3.45103 4.27521 3.00168
lowerneck 20.0271 -7.02186 -18.6772
upperneck -0.587665 -13.4376 10.8024
head -1.32773 -7.29445 6.96787
rclavicle -1.70955e-013 -9.54166e-015
rhumerus 6.08037 -15.5986 -51.1637
rradius 119.135
rwrist 13.3048
rhand -31.7475 -30.4928
rfingers 7.12502
rthumb -5.00491 -60.4137
lclavicle -1.70955e-013 -9.54166e-015
lhumerus 37.0961 69.1286 18.6208
lradius 70.8133
lwrist 71.9382
lhand 14.493 7.79669
lfingers 7.12502
lthumb 39.3742 33.2085
rfemur 11.4986 -16.3003 -2.46044
rtibia 104.474
rfoot -32.4842 -5.21597
rtoes -37.266
lfemur -16.0521 -0.99742 14.0893
ltibia 112.515
lfoot -25.2847 0.370917
ltoes -16.9217
326
root 13.0687 12.1849 -13.1188 -41.3012 -157.734 14.095
lowerback 10.5804 6.5071 4.33138
upperback 2.49057 9.07808 6.14469
thorax -3.61171 4.34758 2.77178
lowerneck 20.1211 -7.37263 -18.7603
upperneck -0.962548 -13.8882 11.3982
head -1.34087 -7.53188 7.1856
rclavicle -1.11319e-014 -7.95139e-015
rhumerus 4.58827 -15.2713 -50.1529
rradius 116.57
rwrist 14.5844
rhand -31.986 -30.648
rfingers 7.12502
rthumb -5.23525 -60.5633
lclavicle -1.11319e-014 -7.95139e-015
lhumerus 37.107 70.5535 19.5451
lradius 70.1241
lwrist 71.5984
lhand 16.7162 6.37197
lfingers 7.12502
lthumb 41.4645 31.1389
rfemur 11.8499 -17.0737 -1.95115
rtibia 103.414
rfoot -32.3956 -5.66801
rtoes -37.3263
lfemur -16.2825 -0.953416 13.744
ltibia 111.643
lfoot -25.5039 1.15368
ltoes -17.0231
327
root 13.074 12.3011 -13.2087 -40.8472 -157.501 14.9079
lowerback 10.7098 6.62091 5.0957
upperback 2.29876 9.3331 6.19703
thorax -3.77694 4.45655 2.35936
lowerneck 20.256 -7.63447 -19.2796
upperneck -1.39861 -14.3169 12.5472
head -1.30955 -7.78914 7.64485
rclavicle 2.38542e-014 1.59028e-015
rhumerus 3.42494 -15.0042 -49.1894
rradius 114.064
rwrist 14.5624
rhand -31.4116 -30.9437
rfingers 7.12502
rthumb -4.68056 -60.872
lclavicle 2.38542e-014 1.59028e-015
lhumerus 35.9135 71.7428 19.4154
lradius 69.6686
lwrist 70.6877
lhand 17.8475 5.08516
lfingers 7.12502
lthumb 42.5248 29.4969
rfemur 11.9781 -17.6647 -0.142279
rtibia 102.258
rfoot -31.9329 -6.64013
rtoes -37.4781
lfemur -16.5455 -0.727223 14.5329
ltibia 110.796
lfoot -25.7093 1.45234
ltoes -17.2785
328
root 13.071 12.4096 -13.2945 -40.4127 -157.128 15.4202
lowerback 10.8375 6.81252 5.67654
upperback 2.22538 9.66348 6.20035
thorax -3.83273 4.60699 1.99359
lowerneck 21.5974 -7.93545 -17.9104
upperneck -3.26254 -14.5079 11.6083
head -2.2012 -7.78083 7.32235
rclavicle -1.10922e-013 -5.08889e-014
rhumerus 2.4655 -14.9451 -48.4461
rradius 111.284
rwrist 15.3909
rhand -31.1004 -30.4352
rfingers 7.12502
rthumb -4.38005 -60.3699
lclavicle -1.10922e-013 -5.08889e-014
lhumerus 35.2445 72.8828 19.8716
lradius 69.0528
lwrist 70.2597
lhand 18.7318 4.34177
lfingers 7.12502
lthumb 43.3519 28.4622
rfemur 12.18 -18.0511 1.21479
rtibia 101.084
rfoot -31.4468 -7.53726
rtoes -37.3305
lfemur -16.6064 -0.619148 14.8263
ltibia 109.983
lfoot -25.8103 1.75033
ltoes -17.3658
